<svg xmlns="http://www.w3.org/2000/svg" viewBox="0 0 1373.5 360.55"><defs><style>.cls-1{isolation:isolate;}.cls-2{mix-blend-mode:soft-light;}.cls-3{fill:#ee2e5c;}.cls-4{fill:#fff;}.cls-5{fill:#ba2760;mix-blend-mode:luminosity;}</style></defs><title>yazminAsset 7</title><g class="cls-1"><g id="Layer_2" data-name="Layer 2"><g id="Layer_4" data-name="Layer 4"><g class="cls-2"><path class="cls-3" d="M0,12.6,22.89,35c22.89,22.28,68.68,67.15,114.46,67.15S228.92,57.31,274.7,57.92s91.57,46.24,137.35,64.25c45.78,18.16,91.57,8.4,137.35-6.56S641,80.2,686.75,65.25,778.32,40.52,824.1,28.32,915.67,1.46,961.45.08c45.78-1.22,91.57,11,137.35,39.53,45.78,28.38,91.57,73.25,137.35,87.9,45.78,14.81,91.57-.45,114.46-8.09l22.89-7.63V360.55H0Z"/><path class="cls-4" d="M0,124l22.89,2.6c22.89,2.44,68.68,7.63,114.46,22.13s91.57,38.3,137.35,32c45.78-6.41,91.57-43,137.35-46.08s91.57,27.47,137.35,48.07S641,214,686.75,215.26c45.78,1.38,91.57-6.86,137.35-21.51,45.78-14.81,91.57-36.17,137.35-47.62s91.57-13,137.35,1.07,91.57,43.49,137.35,55.7,91.57,7,114.46,4.58l22.89-2.59V360.55H0Z"/><path class="cls-5" d="M0,299.51l22.89-3.36c22.89-3.21,68.68-9.92,114.46-15.26s91.57-9.31,137.35-17.55c45.78-8.09,91.57-20.3,137.35-17.55,45.78,2.9,91.57,20.6,137.35,19.38s91.57-21.67,137.35-34c45.78-12.52,91.57-17.1,137.35-22.74s91.57-12.21,137.35-5.5,91.57,26.4,137.35,30.22,91.57-8.39,137.35-1.83c45.78,6.71,91.57,32,114.46,44.87l22.89,12.66v71.73H0Z"/></g></g></g></g></svg>